<?xml version="1.0" encoding="UTF-8" standalone="no"?>
<svg width="19px" height="19px" viewBox="0 0 19 19" version="1.1" xmlns="http://www.w3.org/2000/svg" xmlns:xlink="http://www.w3.org/1999/xlink" xmlns:sketch="http://www.bohemiancoding.com/sketch/ns">
    <!-- Generator: Sketch 3.1.1 (8761) - http://www.bohemiancoding.com/sketch -->
    <title>1414569590_698982-icon-135-pen-angled</title>
    <desc>Created with Sketch.</desc>
    <defs></defs>
    <g id="Page-1" stroke="none" stroke-width="1" fill="none" fill-rule="evenodd" sketch:type="MSPage">
        <g id="1414569590_698982-icon-135-pen-angled" sketch:type="MSLayerGroup" transform="translate(0.000000, 0.628000)" fill="#4990E2">
            <g id="Page-1" sketch:type="MSShapeGroup">
                <g id="icon-135-pen-angled">
                    <path d="M14.798905,5.53530105 L4.64131179,15.7049158 L2.29630187,13.3599057 L12.4591845,3.19558062 L14.798905,5.53530105 L14.798905,5.53530105 Z M15.4349248,4.89852864 L16.9911859,3.34042564 C17.3421621,2.98903403 17.3395755,2.41785381 16.98687,2.06611647 L15.9250379,1.00719898 C15.5716781,0.654809076 15.0023319,0.652072194 14.6501213,1.00433278 L13.0955354,2.55913935 L15.4349248,4.89852864 L15.4349248,4.89852864 Z M1.71333549,14.0497316 L1.13774414,16.8511593 L3.95915805,16.2955542 L1.71333549,14.0497316 L1.71333549,14.0497316 Z M0.9,13.5 L1.77635684e-15,18 L4.5,17.1 L17.622096,3.97790388 C18.3278629,3.27213706 18.3295693,2.12956928 17.6307746,1.43077466 L16.5692254,0.369225324 C15.8682515,-0.33174846 14.7355029,-0.335502927 14.022096,0.377903943 L0.9,13.5 L0.9,13.5 Z" id="pen-angled"></path>
                </g>
            </g>
        </g>
    </g>
</svg>