<?xml version="1.0" encoding="UTF-8" standalone="no"?>
<svg width="340px" height="295px" viewBox="0 0 340 295" version="1.1" xmlns="http://www.w3.org/2000/svg" xmlns:xlink="http://www.w3.org/1999/xlink" xmlns:sketch="http://www.bohemiancoding.com/sketch/ns">
    <!-- Generator: Sketch 3.1.1 (8761) - http://www.bohemiancoding.com/sketch -->
    <title>Group 2</title>
    <desc>Created with Sketch.</desc>
    <defs></defs>
    <g id="Page-1" stroke="none" stroke-width="1" fill="none" fill-rule="evenodd" sketch:type="MSPage">
        <g id="Group-2" sketch:type="MSLayerGroup" transform="translate(3.000000, 3.000000)">
            <path d="M167,288.546875 C303.628906,288.546875 334,228.394997 334,145 C334,61.6050028 284.210938,0.82421875 167,0.82421875 C49.7890625,0.82421875 0,61.6050028 0,145 C0,228.394997 30.3710938,288.546875 167,288.546875 Z" id="Oval-4" stroke="#FFFFFF" stroke-width="6" sketch:type="MSShapeGroup"></path>
            <path d="M110.5,204 C129.001539,204 144,177.5848 144,145 C144,112.4152 129.001539,86 110.5,86 C91.9984609,86 77,112.4152 77,145 C77,177.5848 91.9984609,204 110.5,204 Z" id="Oval-2" fill="#FFFFFF" sketch:type="MSShapeGroup" transform="translate(110.500000, 145.000000) rotate(8.000000) translate(-110.500000, -145.000000) "></path>
            <ellipse id="Oval-3" fill="#FFFFFF" sketch:type="MSShapeGroup" transform="translate(226.500000, 145.000000) scale(-1, 1) rotate(8.000000) translate(-226.500000, -145.000000) " cx="226.5" cy="145" rx="33.5" ry="59"></ellipse>
        </g>
    </g>
</svg>