<?xml version="1.0" encoding="UTF-8" standalone="no"?>
<svg width="18px" height="22px" viewBox="0 0 18 22" version="1.1" xmlns="http://www.w3.org/2000/svg" xmlns:xlink="http://www.w3.org/1999/xlink" xmlns:sketch="http://www.bohemiancoding.com/sketch/ns">
    <!-- Generator: Sketch 3.1.1 (8761) - http://www.bohemiancoding.com/sketch -->
    <title>1414569486_698431-icon-27-trash-can</title>
    <desc>Created with Sketch.</desc>
    <defs></defs>
    <g id="Page-1" stroke="none" stroke-width="1" fill="none" fill-rule="evenodd" sketch:type="MSPage">
        <g id="1414569486_698431-icon-27-trash-can" sketch:type="MSLayerGroup" fill="#FA5843">
            <g id="Page-1" sketch:type="MSShapeGroup">
                <g id="icon-27-trash-can">
                    <path d="M14.5714286,3.25925926 L12.8571429,3.25925926 L12.8571429,1.63360715 C12.8571429,0.731390831 12.0892647,0 11.1450928,0 L6.85490717,0 C5.90936803,0 5.14285714,0.7283628 5.14285714,1.63360715 L5.14285714,3.25925926 L3.42857143,3.25925926 L0,3.25925926 L0,4.07407407 L1.71428571,4.07407407 L1.71428571,19.5499755 C1.71428571,20.9030866 2.85768128,22 4.28582246,22 L13.7141775,22 C15.134398,22 16.2857143,20.9114143 16.2857143,19.5499755 L16.2857143,4.07407407 L18,4.07407407 L18,3.25925926 L14.5714286,3.25925926 L14.5714286,3.25925926 Z M2.57142857,4.07407407 L2.57142857,19.5599869 C2.57142857,20.4575591 3.33719771,21.1851852 4.27875789,21.1851852 L13.7212421,21.1851852 C14.6641741,21.1851852 15.4285714,20.4499421 15.4285714,19.5599869 L15.4285714,4.07407407 L2.57142857,4.07407407 L2.57142857,4.07407407 Z M5.14285714,5.7037037 L5.14285714,19.5555556 L6,19.5555556 L6,5.7037037 L5.14285714,5.7037037 L5.14285714,5.7037037 Z M8.57142857,5.7037037 L8.57142857,19.5555556 L9.42857143,19.5555556 L9.42857143,5.7037037 L8.57142857,5.7037037 L8.57142857,5.7037037 Z M12,5.7037037 L12,19.5555556 L12.8571429,19.5555556 L12.8571429,5.7037037 L12,5.7037037 L12,5.7037037 Z M6.85965369,0.814814815 C6.38488011,0.814814815 6,1.17550101 6,1.62877942 L6,3.25925926 L12,3.25925926 L12,1.62877942 C12,1.17923918 11.6246731,0.814814815 11.1403463,0.814814815 L6.85965369,0.814814815 L6.85965369,0.814814815 Z" id="trash-can"></path>
                </g>
            </g>
        </g>
    </g>
</svg>